<svg width="14" height="10" viewBox="0 0 14 10" fill="none" xmlns="http://www.w3.org/2000/svg">
<path d="M13.9125 0.7L9.625 4.9L13.9125 9.1C14 8.925 14 8.75 14 8.575V1.225C14 1.05 13.9125 0.875 13.9125 0.7ZM12.775 0H1.225C1.05 0 0.875 0.0875 0.7 0.0875L6.125 5.5125C6.5625 5.95 7.35 5.95 7.875 5.5125L13.3 0.0875C13.125 0.0875 12.95 0 12.775 0ZM0.0875 0.7C0.0875 0.875 0 1.05 0 1.225V8.575C0 8.75 0.0875 8.925 0.0875 9.1L4.375 4.9L0.0875 0.7ZM9.0125 5.5125L8.4875 6.125C7.6125 6.9125 6.3875 6.9125 5.5125 6.125L4.9875 5.5125L0.7 9.7125C0.875 9.8 1.05 9.8 1.225 9.8H12.775C12.95 9.8 13.125 9.7125 13.3 9.7125L9.0125 5.5125Z" fill="#BCC9DA"/>
</svg>
