<svg width="14" height="14" viewBox="0 0 14 14" fill="none" xmlns="http://www.w3.org/2000/svg">
<g clip-path="url(#clip0_3117_145)">
<path d="M13.5625 10.0625C13.5625 10.0625 10.7625 8.05 9.975 8.1375C9.625 8.225 9.3625 8.4875 9.0125 8.925C8.925 9.0125 8.75 9.1875 8.6625 9.3625C8.4 9.275 8.1375 9.1875 7.875 9.0125C6.5625 8.4875 5.5125 7.4375 4.9 6.125C4.8125 5.8625 4.6375 5.6 4.55 5.3375C4.725 5.25 4.9 5.075 4.9875 4.9875C5.5125 4.6375 5.775 4.375 5.775 4.025C5.95 3.2375 3.9375 0.4375 3.85 0.4375C3.7625 0.175 3.4125 0 3.15 0C2.275 0 0 2.975 0 3.5C0 3.5 0 6.475 3.7625 10.2375C7.4375 14 10.5 14 10.5 14C11.025 14 14 11.725 14 10.85C14 10.5875 13.825 10.2375 13.5625 10.0625Z" fill="#BCC9DA"/>
</g>
<defs>
<clipPath id="clip0_3117_145">
<rect width="14" height="14" fill="white"/>
</clipPath>
</defs>
</svg>
